<?xml version="1.0" encoding="UTF-8"?>
<svg version="1.1" xmlns="http://www.w3.org/2000/svg" width="301" height="301">
<path d="M0 0 C2.31 0 4.62 0 7 0 C7 2.31 7 4.62 7 7 C11.62 7 16.24 7 21 7 C21 4.69 21 2.38 21 0 C23.31 0 25.62 0 28 0 C28 2.31 28 4.62 28 7 C32.62 7 37.24 7 42 7 C42 4.69 42 2.38 42 0 C44.31 0 46.62 0 49 0 C49 2.31 49 4.62 49 7 C53.62 7 58.24 7 63 7 C63 4.69 63 2.38 63 0 C65.31 0 67.62 0 70 0 C70 9.24 70 18.48 70 28 C67.69 28 65.38 28 63 28 C63 62.65 63 97.3 63 133 C51.45 133 39.9 133 28 133 C28 142.24 28 151.48 28 161 C30.31 161 32.62 161 35 161 C35 163.31 35 165.62 35 168 C37.31 168 39.62 168 42 168 C42 170.31 42 172.62 42 175 C53.55 175 65.1 175 77 175 C77 177.31 77 179.62 77 182 C79.31 182 81.62 182 84 182 C84 184.31 84 186.62 84 189 C88.62 189 93.24 189 98 189 C98 212.1 98 235.2 98 259 C19.46 259 -59.08 259 -140 259 C-140 235.9 -140 212.8 -140 189 C-135.38 189 -130.76 189 -126 189 C-126 186.69 -126 184.38 -126 182 C-123.69 182 -121.38 182 -119 182 C-119 179.69 -119 177.38 -119 175 C-109.76 175 -100.52 175 -91 175 C-91 172.69 -91 170.38 -91 168 C-88.69 168 -86.38 168 -84 168 C-84 165.69 -84 163.38 -84 161 C-81.69 161 -79.38 161 -77 161 C-77 158.69 -77 156.38 -77 154 C-74.69 154 -72.38 154 -70 154 C-70 137.83 -70 121.66 -70 105 C-72.31 105 -74.62 105 -77 105 C-77 100.38 -77 95.76 -77 91 C-74.69 91 -72.38 91 -70 91 C-70 86.38 -70 81.76 -70 77 C-72.31 77 -74.62 77 -77 77 C-77 72.38 -77 67.76 -77 63 C-74.69 63 -72.38 63 -70 63 C-70 58.38 -70 53.76 -70 49 C-72.31 49 -74.62 49 -77 49 C-77 39.76 -77 30.52 -77 21 C-74.69 21 -72.38 21 -70 21 C-70 18.69 -70 16.38 -70 14 C-67.69 14 -65.38 14 -63 14 C-63 11.69 -63 9.38 -63 7 C-42.21 7 -21.42 7 0 7 C0 4.69 0 2.38 0 0 Z " fill="#ECCCA2" transform="translate(168,42)"/>
<path d="M0 0 C11.55 0 23.1 0 35 0 C35 2.31 35 4.62 35 7 C37.31 7 39.62 7 42 7 C42 11.62 42 16.24 42 21 C44.31 21 46.62 21 49 21 C49 23.31 49 25.62 49 28 C51.31 28 53.62 28 56 28 C56 25.69 56 23.38 56 21 C58.31 21 60.62 21 63 21 C63 18.69 63 16.38 63 14 C65.31 14 67.62 14 70 14 C70 16.31 70 18.62 70 21 C72.31 21 74.62 21 77 21 C77 23.31 77 25.62 77 28 C93.17 28 109.34 28 126 28 C126 25.69 126 23.38 126 21 C128.31 21 130.62 21 133 21 C133 18.69 133 16.38 133 14 C137.62 14 142.24 14 147 14 C147 16.31 147 18.62 147 21 C151.62 21 156.24 21 161 21 C161 18.69 161 16.38 161 14 C163.31 14 165.62 14 168 14 C168 9.38 168 4.76 168 0 C177.24 0 186.48 0 196 0 C196 2.31 196 4.62 196 7 C198.31 7 200.62 7 203 7 C203 9.31 203 11.62 203 14 C207.62 14 212.24 14 217 14 C217 37.1 217 60.2 217 84 C138.46 84 59.92 84 -21 84 C-21 60.9 -21 37.8 -21 14 C-16.38 14 -11.76 14 -7 14 C-7 11.69 -7 9.38 -7 7 C-4.69 7 -2.38 7 0 7 C0 4.69 0 2.38 0 0 Z " fill="#6699CC" transform="translate(49,217)"/>
<path d="M0 0 C2.31 0 4.62 0 7 0 C7 2.31 7 4.62 7 7 C11.62 7 16.24 7 21 7 C21 4.69 21 2.38 21 0 C23.31 0 25.62 0 28 0 C28 2.31 28 4.62 28 7 C32.62 7 37.24 7 42 7 C42 4.69 42 2.38 42 0 C44.31 0 46.62 0 49 0 C49 2.31 49 4.62 49 7 C53.62 7 58.24 7 63 7 C63 4.69 63 2.38 63 0 C65.31 0 67.62 0 70 0 C70 9.24 70 18.48 70 28 C39.97 28 9.94 28 -21 28 C-21 30.31 -21 32.62 -21 35 C-25.62 35 -30.24 35 -35 35 C-35 37.31 -35 39.62 -35 42 C-37.31 42 -39.62 42 -42 42 C-42 46.62 -42 51.24 -42 56 C-39.69 56 -37.38 56 -35 56 C-35 58.31 -35 60.62 -35 63 C-39.62 63 -44.24 63 -49 63 C-49 65.31 -49 67.62 -49 70 C-51.31 70 -53.62 70 -56 70 C-56 72.31 -56 74.62 -56 77 C-53.69 77 -51.38 77 -49 77 C-49 79.31 -49 81.62 -49 84 C-51.31 84 -53.62 84 -56 84 C-56 88.62 -56 93.24 -56 98 C-58.31 98 -60.62 98 -63 98 C-63 100.31 -63 102.62 -63 105 C-67.62 105 -72.24 105 -77 105 C-77 100.38 -77 95.76 -77 91 C-74.69 91 -72.38 91 -70 91 C-70 86.38 -70 81.76 -70 77 C-72.31 77 -74.62 77 -77 77 C-77 72.38 -77 67.76 -77 63 C-74.69 63 -72.38 63 -70 63 C-70 58.38 -70 53.76 -70 49 C-72.31 49 -74.62 49 -77 49 C-77 39.76 -77 30.52 -77 21 C-74.69 21 -72.38 21 -70 21 C-70 18.69 -70 16.38 -70 14 C-67.69 14 -65.38 14 -63 14 C-63 11.69 -63 9.38 -63 7 C-42.21 7 -21.42 7 0 7 C0 4.69 0 2.38 0 0 Z " fill="#BF9C6F" transform="translate(168,42)"/>
<path d="M0 0 C27.72 0 55.44 0 84 0 C84 18.48 84 36.96 84 56 C77.07 56 70.14 56 63 56 C63 49.07 63 42.14 63 35 C58.38 35 53.76 35 49 35 C49 41.93 49 48.86 49 56 C39.76 56 30.52 56 21 56 C21 49.07 21 42.14 21 35 C9.45 35 -2.1 35 -14 35 C-14 32.69 -14 30.38 -14 28 C-16.31 28 -18.62 28 -21 28 C-21 23.38 -21 18.76 -21 14 C-18.69 14 -16.38 14 -14 14 C-14 11.69 -14 9.38 -14 7 C-9.38 7 -4.76 7 0 7 C0 4.69 0 2.38 0 0 Z " fill="#ECCCA2" transform="translate(147,70)"/>
<path d="M0 0 C20.79 0 41.58 0 63 0 C63 11.55 63 23.1 63 35 C60.69 35 58.38 35 56 35 C56 37.31 56 39.62 56 42 C37.52 42 19.04 42 0 42 C0 28.14 0 14.28 0 0 Z " fill="#C6AB88" transform="translate(133,175)"/>
<path d="M0 0 C2.31 0 4.62 0 7 0 C7 2.31 7 4.62 7 7 C9.31 7 11.62 7 14 7 C14 9.31 14 11.62 14 14 C16.31 14 18.62 14 21 14 C21 16.31 21 18.62 21 21 C23.31 21 25.62 21 28 21 C28 23.31 28 25.62 28 28 C30.31 28 32.62 28 35 28 C35 30.31 35 32.62 35 35 C37.31 35 39.62 35 42 35 C42 37.31 42 39.62 42 42 C53.55 42 65.1 42 77 42 C77 39.69 77 37.38 77 35 C79.31 35 81.62 35 84 35 C84 32.69 84 30.38 84 28 C86.31 28 88.62 28 91 28 C91 25.69 91 23.38 91 21 C93.31 21 95.62 21 98 21 C98 18.69 98 16.38 98 14 C100.31 14 102.62 14 105 14 C105 11.69 105 9.38 105 7 C107.31 7 109.62 7 112 7 C112 9.31 112 11.62 112 14 C114.31 14 116.62 14 119 14 C119 16.31 119 18.62 119 21 C121.31 21 123.62 21 126 21 C126 25.62 126 30.24 126 35 C123.69 35 121.38 35 119 35 C119 37.31 119 39.62 119 42 C114.38 42 109.76 42 105 42 C105 39.69 105 37.38 105 35 C100.38 35 95.76 35 91 35 C91 37.31 91 39.62 91 42 C88.69 42 86.38 42 84 42 C84 44.31 84 46.62 84 49 C67.83 49 51.66 49 35 49 C35 46.69 35 44.38 35 42 C32.69 42 30.38 42 28 42 C28 39.69 28 37.38 28 35 C25.69 35 23.38 35 21 35 C21 37.31 21 39.62 21 42 C18.69 42 16.38 42 14 42 C14 44.31 14 46.62 14 49 C11.69 49 9.38 49 7 49 C7 46.69 7 44.38 7 42 C4.69 42 2.38 42 0 42 C0 37.38 0 32.76 0 28 C-2.31 28 -4.62 28 -7 28 C-7 25.69 -7 23.38 -7 21 C-9.31 21 -11.62 21 -14 21 C-14 18.69 -14 16.38 -14 14 C-11.69 14 -9.38 14 -7 14 C-7 11.69 -7 9.38 -7 7 C-4.69 7 -2.38 7 0 7 C0 4.69 0 2.38 0 0 Z " fill="#DEDEDE" transform="translate(91,196)"/>
<path d="M0 0 C2.31 0 4.62 0 7 0 C7 2.31 7 4.62 7 7 C9.31 7 11.62 7 14 7 C14 9.31 14 11.62 14 14 C16.31 14 18.62 14 21 14 C21 16.31 21 18.62 21 21 C23.31 21 25.62 21 28 21 C28 23.31 28 25.62 28 28 C23.38 28 18.76 28 14 28 C14 30.31 14 32.62 14 35 C11.69 35 9.38 35 7 35 C7 37.31 7 39.62 7 42 C4.69 42 2.38 42 0 42 C0 37.38 0 32.76 0 28 C-2.31 28 -4.62 28 -7 28 C-7 25.69 -7 23.38 -7 21 C-9.31 21 -11.62 21 -14 21 C-14 18.69 -14 16.38 -14 14 C-11.69 14 -9.38 14 -7 14 C-7 11.69 -7 9.38 -7 7 C-4.69 7 -2.38 7 0 7 C0 4.69 0 2.38 0 0 Z " fill="#FFFFFF" transform="translate(91,196)"/>
<path d="M0 0 C6.93 0 13.86 0 21 0 C21 2.31 21 4.62 21 7 C23.31 7 25.62 7 28 7 C28 9.31 28 11.62 28 14 C37.24 14 46.48 14 56 14 C56 16.31 56 18.62 56 21 C44.45 21 32.9 21 21 21 C21 18.69 21 16.38 21 14 C18.69 14 16.38 14 14 14 C14 11.69 14 9.38 14 7 C11.69 7 9.38 7 7 7 C7 9.31 7 11.62 7 14 C4.69 14 2.38 14 0 14 C0 16.31 0 18.62 0 21 C-2.31 21 -4.62 21 -7 21 C-7 16.38 -7 11.76 -7 7 C-4.69 7 -2.38 7 0 7 C0 4.69 0 2.38 0 0 Z " fill="#DEDEDE" transform="translate(105,224)"/>
<path d="M0 0 C9.24 0 18.48 0 28 0 C28 6.93 28 13.86 28 21 C18.76 21 9.52 21 0 21 C0 14.07 0 7.14 0 0 Z " fill="#EDEDED" transform="translate(168,105)"/>
<path d="M0 0 C2.31 0 4.62 0 7 0 C7 2.31 7 4.62 7 7 C9.31 7 11.62 7 14 7 C14 9.31 14 11.62 14 14 C16.31 14 18.62 14 21 14 C21 18.62 21 23.24 21 28 C18.69 28 16.38 28 14 28 C14 30.31 14 32.62 14 35 C11.69 35 9.38 35 7 35 C7 30.38 7 25.76 7 21 C4.69 21 2.38 21 0 21 C0 18.69 0 16.38 0 14 C-2.31 14 -4.62 14 -7 14 C-7 11.69 -7 9.38 -7 7 C-4.69 7 -2.38 7 0 7 C0 4.69 0 2.38 0 0 Z " fill="#FFFFFF" transform="translate(196,203)"/>
<path d="M0 0 C6.93 0 13.86 0 21 0 C21 6.93 21 13.86 21 21 C14.07 21 7.14 21 0 21 C0 14.07 0 7.14 0 0 Z " fill="#EDEDED" transform="translate(210,105)"/>
<path d="M0 0 C11.55 0 23.1 0 35 0 C35 2.31 35 4.62 35 7 C23.45 7 11.9 7 0 7 C0 4.69 0 2.38 0 0 Z " fill="#5585B4" transform="translate(133,252)"/>
<path d="M0 0 C11.55 0 23.1 0 35 0 C35 2.31 35 4.62 35 7 C23.45 7 11.9 7 0 7 C0 4.69 0 2.38 0 0 Z " fill="#C4B09F" transform="translate(133,105)"/>
<path d="M0 0 C2.31 0 4.62 0 7 0 C7 2.31 7 4.62 7 7 C9.31 7 11.62 7 14 7 C14 11.62 14 16.24 14 21 C11.69 21 9.38 21 7 21 C7 18.69 7 16.38 7 14 C4.69 14 2.38 14 0 14 C0 9.38 0 4.76 0 0 Z " fill="#5585B4" transform="translate(112,231)"/>
<path d="M0 0 C6.93 0 13.86 0 21 0 C21 2.31 21 4.62 21 7 C14.07 7 7.14 7 0 7 C0 4.69 0 2.38 0 0 Z " fill="#DEDEDE" transform="translate(140,238)"/>
<path d="M0 0 C2.31 0 4.62 0 7 0 C7 4.62 7 9.24 7 14 C2.38 14 -2.24 14 -7 14 C-7 11.69 -7 9.38 -7 7 C-4.69 7 -2.38 7 0 7 C0 4.69 0 2.38 0 0 Z " fill="#FFFFFF" transform="translate(168,231)"/>
<path d="M0 0 C2.31 0 4.62 0 7 0 C7 2.31 7 4.62 7 7 C9.31 7 11.62 7 14 7 C14 9.31 14 11.62 14 14 C9.38 14 4.76 14 0 14 C0 9.38 0 4.76 0 0 Z " fill="#FFFFFF" transform="translate(126,231)"/>
<path d="M0 0 C2.31 0 4.62 0 7 0 C7 4.62 7 9.24 7 14 C4.69 14 2.38 14 0 14 C0 9.38 0 4.76 0 0 Z " fill="#5585B4" transform="translate(224,287)"/>
<path d="M0 0 C2.31 0 4.62 0 7 0 C7 4.62 7 9.24 7 14 C4.69 14 2.38 14 0 14 C0 9.38 0 4.76 0 0 Z " fill="#5585B4" transform="translate(77,287)"/>
<path d="M0 0 C2.31 0 4.62 0 7 0 C7 4.62 7 9.24 7 14 C4.69 14 2.38 14 0 14 C0 9.38 0 4.76 0 0 Z " fill="#5585B4" transform="translate(217,273)"/>
<path d="M0 0 C2.31 0 4.62 0 7 0 C7 4.62 7 9.24 7 14 C4.69 14 2.38 14 0 14 C0 9.38 0 4.76 0 0 Z " fill="#5585B4" transform="translate(84,273)"/>
<path d="M0 0 C4.62 0 9.24 0 14 0 C14 2.31 14 4.62 14 7 C9.38 7 4.76 7 0 7 C0 4.69 0 2.38 0 0 Z " fill="#C4B09F" transform="translate(196,105)"/>
<path d="M0 0 C2.31 0 4.62 0 7 0 C7 2.31 7 4.62 7 7 C4.69 7 2.38 7 0 7 C0 4.69 0 2.38 0 0 Z " fill="#5585B4" transform="translate(182,245)"/>
<path d="M0 0 C2.31 0 4.62 0 7 0 C7 2.31 7 4.62 7 7 C4.69 7 2.38 7 0 7 C0 4.69 0 2.38 0 0 Z " fill="#5585B4" transform="translate(119,245)"/>
<path d="M0 0 C2.31 0 4.62 0 7 0 C7 2.31 7 4.62 7 7 C4.69 7 2.38 7 0 7 C0 4.69 0 2.38 0 0 Z " fill="#5585B4" transform="translate(189,238)"/>
<path d="M0 0 C2.31 0 4.62 0 7 0 C7 2.31 7 4.62 7 7 C4.69 7 2.38 7 0 7 C0 4.69 0 2.38 0 0 Z " fill="#6699CC" transform="translate(119,238)"/>
<path d="M0 0 C2.31 0 4.62 0 7 0 C7 2.31 7 4.62 7 7 C4.69 7 2.38 7 0 7 C0 4.69 0 2.38 0 0 Z " fill="#DEDEDE" transform="translate(175,231)"/>
<path d="M0 0 C2.31 0 4.62 0 7 0 C7 2.31 7 4.62 7 7 C4.69 7 2.38 7 0 7 C0 4.69 0 2.38 0 0 Z " fill="#6699CC" transform="translate(112,231)"/>
<path d="M0 0 C2.31 0 4.62 0 7 0 C7 2.31 7 4.62 7 7 C4.69 7 2.38 7 0 7 C0 4.69 0 2.38 0 0 Z " fill="#FFFFFF" transform="translate(175,224)"/>
<path d="M0 0 C2.31 0 4.62 0 7 0 C7 2.31 7 4.62 7 7 C4.69 7 2.38 7 0 7 C0 4.69 0 2.38 0 0 Z " fill="#FFFFFF" transform="translate(119,224)"/>
<path d="M0 0 C2.31 0 4.62 0 7 0 C7 2.31 7 4.62 7 7 C4.69 7 2.38 7 0 7 C0 4.69 0 2.38 0 0 Z " fill="#FFFFFF" transform="translate(182,217)"/>
<path d="M0 0 C2.31 0 4.62 0 7 0 C7 2.31 7 4.62 7 7 C4.69 7 2.38 7 0 7 C0 4.69 0 2.38 0 0 Z " fill="#BF9C6F" transform="translate(112,140)"/>
</svg>
